<svg width="21" height="22" viewBox="0 0 21 22" fill="none" xmlns="http://www.w3.org/2000/svg">
<path d="M16.1917 6.69207C16.2651 6.69024 17.8373 6.78564 18.4739 6.73977C19.1105 6.69391 19.3325 6.75995 19.3325 6.75995L19.2206 7.08284C19.2206 7.08284 19.4297 7.08835 18.4134 7.13421C17.397 7.18008 15.5551 7.44793 15.3422 7.31951C15.1294 7.19292 16.1917 6.69207 16.1917 6.69207Z" fill="#458C00"/>
<path d="M18.9286 2.4083C18.9304 2.34592 18.9653 2.28538 18.9653 2.28538L18.5139 1.98083C18.5139 1.98083 16.9509 3.65032 16.4042 4.18235C15.8574 4.71439 15.408 5.22074 15.0649 5.58766C14.8906 5.77479 14.8778 6.04998 14.9053 6.27747C16.0904 4.80979 17.6462 3.80259 18.9286 2.4083Z" fill="#85D82C"/>
<path d="M19.4608 2.82108C19.4608 2.82108 19.0352 2.56607 18.9599 2.49452C18.9343 2.47067 18.9269 2.43948 18.9288 2.40829C17.6464 3.80076 16.0888 4.80979 14.9055 6.27747C14.933 6.49578 15.0009 6.67007 15.0009 6.67007C15.0009 6.67007 15.8136 6.41139 15.8485 6.34901C15.8833 6.28664 17.1822 5.15286 18.2628 4.0998C19.3434 3.04674 19.4608 2.82108 19.4608 2.82108Z" fill="#468C00"/>
<path d="M14.7696 6.66458C14.8173 6.6389 16.1529 6.22795 17.017 6.01513C17.8811 5.80232 19.6258 5.18223 19.9157 5.05014C20.2056 4.91804 20.7394 4.72908 20.7394 4.72908L20.9999 5.1859C20.9999 5.1859 18.4499 6.31051 17.1766 6.73246C15.9034 7.15442 15.032 7.50116 14.6944 7.68462C14.3569 7.86808 14.4449 7.18928 14.4449 7.18928L14.7696 6.66458Z" fill="url(#paint0_linear_742_2038)"/>
<path d="M14.733 0.315021C14.733 0.315021 14.8523 0.212283 15.0137 0.269156C15.1752 0.326029 15.1201 0.537008 15.1201 0.537008C15.1201 0.537008 14.6872 3.05041 14.6651 3.45586C14.6413 3.8613 14.3184 5.62435 14.3239 6.12703C14.3276 6.62971 13.9973 7.36355 13.9973 7.36355L13.2507 6.64072C13.2507 6.64072 13.6708 5.96559 13.8249 5.08865C13.979 4.21171 14.4413 2.19915 14.5147 1.4378C14.5881 0.676437 14.733 0.315021 14.733 0.315021Z" fill="url(#paint1_linear_742_2038)"/>
<path d="M15.5843 4.45756C15.6522 4.2264 15.7329 3.99891 15.8393 3.77509C16.2521 2.90365 16.9236 1.32406 17.0501 1.06355C17.1767 0.803035 17.1419 0.837892 17.1419 0.837892C17.1419 0.837892 16.9786 0.73332 16.7933 0.678282C16.6906 0.647094 16.6153 0.680117 16.542 0.705801C16.0943 1.92581 15.5494 3.14398 15.5843 4.45756Z" fill="#468C00"/>
<path d="M15.1329 6.53066C15.32 5.82251 15.3916 5.12536 15.5861 4.45757C15.5494 3.14399 16.0942 1.92765 16.5437 0.705811C16.485 0.725991 16.4263 0.742503 16.3548 0.716818C16.1933 0.659946 15.8466 0.524185 15.8466 0.524185C15.8466 0.524185 15.5769 0.889271 15.2907 1.87812C15.0045 2.86697 14.6192 4.24108 14.3716 4.88686C14.1221 5.53264 13.6817 7.01867 13.6817 7.01867C13.6817 7.01867 14.0248 7.41127 14.2945 7.75801C14.5642 8.10475 14.6266 8.13961 14.6266 8.13961C14.6266 8.13961 14.8816 7.48282 15.1329 6.53066Z" fill="url(#paint2_linear_742_2038)"/>
<path opacity="0.2" d="M16.008 0.980976C16.0906 1.01216 16.1731 1.04335 16.2318 1.06353C16.2942 1.08555 16.3602 1.09656 16.4263 1.09656C16.5144 1.09656 16.5877 1.07638 16.6501 1.05619C16.5859 1.19929 16.4923 1.41211 16.3786 1.67262C16.1181 2.26703 15.7622 3.08159 15.509 3.61546C15.4026 3.83928 15.3127 4.08145 15.2338 4.35297C15.1512 4.63917 15.0907 4.92903 15.0467 5.14919C15.0155 5.31063 15.0944 5.47208 15.2411 5.54729C15.2943 5.57481 15.3512 5.58766 15.4081 5.58766C15.5072 5.58766 15.6062 5.54729 15.6778 5.47024C15.9585 5.1657 16.2905 4.81162 16.663 4.44653C17.0923 4.02825 18.116 2.944 18.5673 2.46517C18.5783 2.58075 18.6296 2.68532 18.7122 2.76237C18.7507 2.79906 18.8259 2.85227 18.9158 2.91281C18.7507 3.09627 18.4719 3.38797 18.0114 3.83745C17.3656 4.46672 16.6373 5.12717 16.1566 5.56564C15.8282 5.86468 15.6668 6.01145 15.6044 6.07749C15.4906 6.19674 15.4705 6.3802 15.5567 6.52147C15.6246 6.63338 15.7438 6.69759 15.8704 6.69759C15.9034 6.69759 15.9383 6.69208 15.9731 6.68291C16.2795 6.59485 16.7198 6.4701 17.0923 6.37837C17.0812 6.38204 17.0702 6.38571 17.0611 6.38938C16.8923 6.44625 16.7895 6.61503 16.8152 6.78932C16.8207 6.82968 16.8336 6.86637 16.8501 6.90123C16.3731 6.94709 15.9034 6.98929 15.6319 6.98929C15.564 6.98929 15.5255 6.98745 15.5035 6.98379C15.4906 6.98195 15.4778 6.98195 15.4668 6.98195C15.4209 6.98195 15.3751 6.99112 15.3329 7.00764C15.0503 7.11955 14.821 7.21678 14.6522 7.29934C14.5917 7.32869 14.5403 7.37456 14.5055 7.42959C14.4046 7.30117 14.2871 7.15991 14.1551 7.00397C14.1477 6.99479 14.1385 6.98562 14.1294 6.97828L13.7129 6.57467C13.8615 6.28113 14.0853 5.76561 14.1936 5.15652C14.2174 5.02076 14.2486 4.85748 14.2853 4.67219C14.3312 4.71806 14.3917 4.75291 14.4596 4.76942C14.489 4.77676 14.5165 4.7786 14.544 4.7786C14.6999 4.7786 14.8412 4.67953 14.8926 4.52542C15.087 3.93285 15.3182 3.13113 15.5218 2.42297L15.6484 1.98083C15.7787 1.49833 15.9144 1.17544 16.008 0.980976ZM14.9164 0.25264C14.8063 0.25264 14.733 0.315016 14.733 0.315016C14.733 0.315016 14.5862 0.674598 14.5128 1.43779C14.4394 2.20098 13.9789 4.21354 13.823 5.08864C13.6671 5.96375 13.2488 6.64072 13.2488 6.64072L13.867 7.23879C13.9881 7.38373 14.1496 7.57636 14.2908 7.75799C14.5605 8.10473 14.6229 8.13958 14.6229 8.13958C14.6229 8.13958 14.6981 7.94879 14.8063 7.6259C14.9623 7.55068 15.1806 7.45528 15.4613 7.3452C15.5072 7.35071 15.5622 7.35254 15.6282 7.35254C16.23 7.35254 17.5931 7.16908 18.415 7.13239C19.4314 7.08652 19.2222 7.08102 19.2222 7.08102L19.3341 6.75813C19.3341 6.75813 19.2112 6.72144 18.8847 6.72144C18.7727 6.72144 18.6388 6.72511 18.4755 6.73795C18.3545 6.74712 18.1985 6.75079 18.0242 6.75079C17.76 6.75079 17.4573 6.74345 17.1748 6.73245H17.1766C18.4499 6.31049 20.9999 5.18588 20.9999 5.18588L20.7394 4.72906C20.7394 4.72906 20.2056 4.91803 19.9157 5.05012C19.6258 5.18221 17.8811 5.8023 17.017 6.01512C16.6721 6.09951 16.252 6.21692 15.8686 6.327C16.0227 6.16555 17.2409 5.09598 18.2664 4.09796C19.347 3.0449 19.4626 2.82108 19.4626 2.82108C19.4626 2.82108 19.0369 2.56607 18.9617 2.49452C18.936 2.47067 18.9287 2.43948 18.9305 2.40829C18.9324 2.34592 18.9672 2.28538 18.9672 2.28538L18.5159 1.98083C18.5159 1.98083 16.9528 3.65032 16.4061 4.18235C16.0245 4.55478 15.6906 4.91252 15.4063 5.2189C15.4576 4.96022 15.5127 4.70521 15.586 4.45387C15.6539 4.22271 15.7346 3.99522 15.8411 3.7714C16.2538 2.89997 16.9253 1.32038 17.0519 1.05986C17.1491 0.856223 17.151 0.834208 17.1455 0.834208L17.1418 0.837877C17.1418 0.837877 16.9785 0.733305 16.7932 0.678267C16.7639 0.669094 16.7363 0.665425 16.7107 0.665425C16.6483 0.665425 16.5951 0.68744 16.5437 0.705786C16.5052 0.718628 16.4685 0.729636 16.4281 0.729636C16.4043 0.729636 16.3804 0.725967 16.3547 0.716794C16.1933 0.659921 15.8466 0.524161 15.8466 0.524161C15.8466 0.524161 15.5769 0.889246 15.2907 1.8781C15.0632 2.66697 14.7733 3.69618 14.5385 4.40984C14.6027 3.98788 14.6577 3.61546 14.6669 3.45585C14.6908 3.0504 15.1237 0.535168 15.1237 0.535168C15.1237 0.535168 15.1788 0.324189 15.0173 0.269151C14.9788 0.258144 14.9458 0.25264 14.9164 0.25264Z" fill="#424242"/>
<path d="M10.0419 6.51412C9.36126 7.25347 8.976 7.79834 8.26601 8.69913C7.55602 9.59992 7.36522 10.1741 6.65523 10.9117C5.94524 11.6492 5.12517 12.6325 4.4427 13.5333C3.76023 14.4341 3.3236 15.5 2.63929 16.4008C1.95499 17.3016 1.52018 17.9308 1.08172 18.8591C0.643246 19.7875 0.234131 20.6626 0.0708512 21.0992C-0.0924281 21.5358 0.0158132 22 0.507486 22C0.999159 22 1.40827 21.6184 2.58425 20.8809C3.7584 20.1434 5.15269 19.1875 5.56181 18.6133C5.97092 18.0391 7.11938 17.2741 7.5285 17.0557C7.93761 16.8374 9.68599 15.3624 10.0969 14.8707C10.5061 14.3791 11.4894 13.3682 12.1994 12.8215C12.9094 12.2784 14.3569 10.8841 14.6302 10.5576C14.9036 10.2292 15.5585 9.5192 15.6136 9.08256C15.6686 8.64593 15.9695 7.49747 14.3294 6.13253C12.6892 4.76758 10.9977 5.47574 10.0419 6.51412Z" fill="url(#paint3_linear_742_2038)"/>
<path opacity="0.2" d="M12.414 5.92706C12.9534 5.92706 13.4781 6.13804 13.9771 6.55449C15.2687 7.6314 15.1476 8.45881 15.0815 8.90461C15.076 8.94498 15.0705 8.98167 15.0669 9.01286C15.0449 9.16146 14.799 9.51187 14.3367 10.0512C14.289 10.1081 14.245 10.1595 14.2083 10.2035C13.9588 10.5026 12.5296 11.8748 11.8637 12.3867C11.1115 12.9646 10.1079 13.9956 9.67315 14.5185C9.29705 14.9698 7.60922 16.3898 7.26982 16.5696C6.88639 16.7732 5.61318 17.5951 5.11417 18.2923C4.83164 18.6885 3.77674 19.4811 2.29255 20.4131C1.98617 20.6057 1.73667 20.7708 1.51652 20.9157C0.997324 21.2588 0.74048 21.4239 0.553351 21.4459C0.555185 21.4092 0.564359 21.356 0.588208 21.29C0.751488 20.857 1.19179 19.9196 1.58073 19.0921C1.98617 18.2317 2.38612 17.6446 3.07776 16.731C3.44101 16.2522 3.73455 15.7367 4.01891 15.2377C4.29777 14.7478 4.56195 14.2855 4.88117 13.8635C5.60033 12.915 6.39105 11.9776 7.0515 11.2933C7.49548 10.8309 7.75232 10.4328 8.02201 10.0109C8.2128 9.71184 8.41094 9.40363 8.69897 9.04037C8.8806 8.80921 9.04021 8.60374 9.19065 8.40927C9.61811 7.85706 9.95567 7.42042 10.4473 6.88655C11.0069 6.27747 11.7242 5.92706 12.414 5.92706ZM12.414 5.37668C11.4692 5.37668 10.6216 5.88486 10.0419 6.51413C9.36126 7.25347 8.976 7.79835 8.26601 8.69914C7.55602 9.59993 7.36522 10.1742 6.65523 10.9117C5.94524 11.6492 5.12517 12.6325 4.4427 13.5333C3.76023 14.4341 3.3236 15.5 2.63929 16.4008C1.95682 17.3016 1.52018 17.9308 1.08172 18.8592C0.645081 19.7875 0.234131 20.6626 0.0708512 21.0992C-0.0924281 21.5358 0.0158132 22 0.507486 22C0.999159 22 1.40827 21.6184 2.58425 20.8809C3.76023 20.1434 5.15269 19.1875 5.56181 18.6133C5.97092 18.0391 7.11938 17.2741 7.5285 17.0557C7.93761 16.8374 9.68599 15.3624 10.0969 14.8707C10.5061 14.3791 11.4894 13.3682 12.1994 12.8215C12.9094 12.2784 14.3569 10.8841 14.6302 10.5576C14.9036 10.2292 15.5585 9.51921 15.6136 9.08257C15.6686 8.64594 15.9695 7.49748 14.3294 6.13253C13.6836 5.59316 13.0286 5.37668 12.414 5.37668Z" fill="#424242"/>
<path d="M13.434 7.37824C13.434 7.37824 13.4725 7.3709 13.5349 7.36723C13.5954 7.36356 13.6927 7.36539 13.7972 7.38741C13.9036 7.40392 14.0229 7.44245 14.144 7.49748C14.2027 7.52867 14.2687 7.55436 14.3238 7.59472C14.3825 7.63141 14.4393 7.67361 14.498 7.7158C14.5513 7.7635 14.6045 7.8112 14.6522 7.86074C14.7035 7.90844 14.7421 7.96714 14.7842 8.01668C14.8631 8.12492 14.9255 8.23316 14.964 8.33406C15.0062 8.43313 15.0264 8.52119 15.0374 8.5854C15.0466 8.64961 15.0484 8.68814 15.0484 8.68814L15.0246 8.70282C15.0246 8.70282 14.953 8.59274 14.8301 8.43863C14.709 8.28269 14.5274 8.09373 14.3238 7.93045C14.122 7.7635 13.8981 7.62591 13.722 7.53968C13.5477 7.45162 13.423 7.40392 13.423 7.40392L13.434 7.37824Z" fill="#DE5900"/>
<path d="M11.1318 8.91927C11.1318 8.91927 11.1685 8.90643 11.2327 8.88992C11.2639 8.88258 11.3024 8.87341 11.3501 8.87158C11.3978 8.86607 11.451 8.86424 11.506 8.86791C11.5629 8.86974 11.6234 8.87524 11.6876 8.88992C11.7519 8.90276 11.8179 8.91928 11.884 8.94679C11.9482 8.97431 12.0215 8.99816 12.0839 9.04036C12.15 9.07705 12.2105 9.12292 12.2729 9.16878C12.3298 9.22015 12.3866 9.27152 12.4362 9.32839C12.4894 9.38159 12.5279 9.44764 12.5683 9.50451C12.6068 9.56322 12.638 9.6256 12.6637 9.68614C12.693 9.74484 12.7095 9.80355 12.7224 9.85859C12.7517 9.96683 12.7591 10.0622 12.7572 10.1283C12.7554 10.1943 12.7499 10.2328 12.7499 10.2328L12.7242 10.242C12.7242 10.242 12.7114 10.2108 12.6875 10.1576C12.6655 10.1026 12.6251 10.0292 12.5756 9.94115C12.4765 9.76503 12.3096 9.54854 12.0986 9.38343C11.8913 9.21098 11.6473 9.09173 11.4547 9.03119C11.3593 9 11.2785 8.97798 11.2198 8.96697C11.1611 8.95413 11.1281 8.94863 11.1281 8.94863L11.1318 8.91927Z" fill="#A84300"/>
<path d="M12.9975 9.09908C12.9975 9.09908 13.0324 9.09725 13.0893 9.09908C13.1443 9.10092 13.2305 9.11376 13.3186 9.14495C13.4103 9.17247 13.5112 9.22017 13.6103 9.28438C13.6562 9.31923 13.7112 9.35042 13.7552 9.39445C13.8011 9.43481 13.8451 9.48068 13.8891 9.52471C13.9277 9.57424 13.9662 9.62378 14.0011 9.67331C14.0396 9.72101 14.0634 9.77972 14.091 9.83109C14.1423 9.93749 14.179 10.0421 14.1937 10.1375C14.2139 10.231 14.2139 10.3136 14.212 10.3705C14.2084 10.4292 14.201 10.4622 14.201 10.4622L14.1753 10.4732C14.1753 10.4732 14.1295 10.3686 14.0451 10.2182C13.9625 10.0678 13.8341 9.87695 13.68 9.70817C13.5296 9.53572 13.3571 9.38345 13.2177 9.28438C13.0801 9.18347 12.981 9.12477 12.981 9.12477L12.9975 9.09908Z" fill="#DE5900"/>
<path d="M10.6875 6.2683C10.6875 6.2683 10.7169 6.25729 10.7646 6.24445C10.8105 6.23161 10.8838 6.2206 10.9646 6.22427C11.0471 6.22427 11.1388 6.24078 11.2324 6.27197C11.2783 6.29032 11.3296 6.30316 11.3718 6.33068C11.4177 6.35453 11.4617 6.38205 11.5076 6.40957C11.548 6.44259 11.5902 6.47561 11.6269 6.51047C11.6672 6.54349 11.6966 6.58752 11.7296 6.62421C11.7608 6.66091 11.7865 6.70494 11.8085 6.74346C11.8323 6.78199 11.8488 6.82235 11.8635 6.86088C11.9241 7.01315 11.913 7.13607 11.913 7.13607L11.891 7.15258C11.891 7.15258 11.8342 7.07736 11.7388 6.97279C11.6452 6.86822 11.5058 6.73979 11.3498 6.63339C11.1976 6.52331 11.0306 6.43342 10.9004 6.37838C10.7719 6.32151 10.6802 6.29215 10.6802 6.29215L10.6875 6.2683Z" fill="#DE5900"/>
<path d="M7.72107 9.66047C7.72107 9.66047 7.84583 9.62011 8.02195 9.63111C8.06598 9.63295 8.11368 9.63662 8.16138 9.64762C8.21091 9.6568 8.26228 9.66597 8.31365 9.68615C8.36502 9.70633 8.42189 9.72101 8.47142 9.7522C8.52279 9.77972 8.57416 9.8109 8.62553 9.84576C8.67323 9.88429 8.71909 9.92465 8.76312 9.96868C8.80899 10.009 8.84018 10.0641 8.87503 10.1118C8.90806 10.1613 8.93374 10.2127 8.95209 10.2641C8.97594 10.3118 8.98511 10.365 8.99428 10.4108C9.00713 10.4548 9.00529 10.5007 9.00529 10.5392C9.00713 10.5759 9.00162 10.6108 8.99612 10.6383C8.98695 10.6933 8.97594 10.7227 8.97594 10.7227L8.95025 10.73C8.95025 10.73 8.94108 10.7062 8.9264 10.6622C8.91907 10.6401 8.90989 10.6145 8.89522 10.5851C8.88054 10.5576 8.8677 10.5227 8.84752 10.4897C8.77413 10.3503 8.63654 10.1888 8.46409 10.0677C8.29714 9.94116 8.1045 9.84943 7.95774 9.78705C7.8128 9.72468 7.7119 9.68615 7.7119 9.68615L7.72107 9.66047Z" fill="#DE5900"/>
<path d="M10.849 10.9098C10.849 10.9098 10.8839 10.9043 10.9389 10.9025C10.9921 10.9007 11.0802 10.9062 11.1701 10.93C11.2178 10.9392 11.2655 10.9557 11.315 10.9759C11.3646 10.9961 11.4178 11.0181 11.4673 11.0493C11.5168 11.0805 11.5719 11.108 11.6177 11.1483C11.6654 11.1869 11.7113 11.2272 11.7572 11.2694C11.7994 11.3153 11.8397 11.363 11.8764 11.4107C11.9168 11.4565 11.9425 11.5116 11.9736 11.5593C12.0305 11.6602 12.0709 11.7611 12.0929 11.8547C12.1167 11.9446 12.1241 12.0253 12.1241 12.0821C12.1241 12.139 12.1204 12.1739 12.1204 12.1739L12.0966 12.1867C12.0966 12.1867 12.0434 12.0858 11.9516 11.9446C11.8617 11.8015 11.7241 11.6217 11.5627 11.4639C11.4068 11.3024 11.227 11.163 11.082 11.0768C10.9389 10.9869 10.8362 10.9374 10.8362 10.9374L10.849 10.9098Z" fill="#AB4400"/>
<path d="M8.10993 12.7371C8.10993 12.7371 8.14479 12.7316 8.19983 12.7298C8.25303 12.7279 8.34109 12.7334 8.43099 12.7573C8.47869 12.7665 8.52639 12.783 8.57592 12.8032C8.62546 12.8233 8.67866 12.8454 8.72819 12.8765C8.77773 12.9077 8.83277 12.9352 8.87863 12.9756C8.92633 13.0141 8.9722 13.0545 9.01806 13.0967C9.06026 13.1426 9.10062 13.1903 9.13731 13.238C9.17767 13.2838 9.20336 13.3389 9.23454 13.3866C9.29142 13.4875 9.33178 13.5884 9.35379 13.6819C9.37764 13.7718 9.38498 13.8525 9.38498 13.9094C9.38498 13.9663 9.38131 14.0011 9.38131 14.0011L9.35746 14.014C9.35746 14.014 9.30426 13.9131 9.21253 13.7718C9.12263 13.6287 8.98504 13.4489 8.82359 13.2912C8.66765 13.1297 8.48786 12.9903 8.34293 12.9041C8.19983 12.8142 8.09709 12.7646 8.09709 12.7646L8.10993 12.7371Z" fill="#C95100"/>
<path d="M6.40218 13.115C6.40218 13.115 6.43704 13.104 6.49575 13.093C6.55262 13.082 6.64252 13.0747 6.74158 13.0857C6.79295 13.0893 6.84616 13.0967 6.90119 13.1095C6.95623 13.1224 7.01494 13.137 7.07181 13.1609C7.12868 13.1847 7.19106 13.2049 7.2461 13.2398C7.30297 13.271 7.35801 13.3058 7.41305 13.3425C7.46442 13.3829 7.51579 13.4251 7.56349 13.4673C7.61302 13.5076 7.65155 13.5608 7.69374 13.6049C7.77079 13.7003 7.83317 13.7975 7.87353 13.8892C7.91573 13.9791 7.93958 14.0598 7.95059 14.1185C7.96159 14.1772 7.96526 14.2139 7.96526 14.2139L7.94325 14.2305C7.94325 14.2305 7.86986 14.1351 7.74878 14.0011C7.6277 13.8672 7.45157 13.7021 7.25527 13.5645C7.06264 13.4232 6.84799 13.3076 6.68104 13.2416C6.51593 13.1719 6.39851 13.1389 6.39851 13.1389L6.40218 13.115Z" fill="#DE5900"/>
<path d="M3.84652 16.0907C3.84652 16.0907 3.88504 16.0871 3.94926 16.0889C4.01163 16.0907 4.10887 16.1017 4.2116 16.1311C4.26481 16.1439 4.31984 16.1641 4.37672 16.1898C4.43359 16.2155 4.49413 16.2412 4.551 16.2779C4.60788 16.3145 4.67025 16.3476 4.72346 16.3953C4.77849 16.4393 4.83353 16.487 4.8849 16.5365C4.93444 16.5897 4.98214 16.6429 5.02617 16.698C5.07386 16.7512 5.10505 16.8136 5.14358 16.8686C5.21146 16.9842 5.26466 17.0998 5.29402 17.2043C5.32704 17.3071 5.33988 17.3988 5.34539 17.463C5.34906 17.5272 5.34722 17.5657 5.34722 17.5657L5.32337 17.5786C5.32337 17.5786 5.26099 17.4612 5.15275 17.2942C5.04635 17.1273 4.88307 16.9145 4.6941 16.731C4.50881 16.542 4.29599 16.3806 4.12538 16.2779C3.95659 16.1733 3.83551 16.1182 3.83551 16.1182L3.84652 16.0907Z" fill="#DE5900"/>
<path d="M3.03358 19.0683C3.03358 19.0683 3.0611 19.0591 3.10513 19.05C3.14732 19.0408 3.2152 19.0371 3.28492 19.0481C3.32161 19.0518 3.36014 19.0591 3.39866 19.072C3.43719 19.0848 3.47939 19.0977 3.51608 19.1197C3.55277 19.1417 3.5968 19.1582 3.63166 19.1894C3.66835 19.2169 3.70321 19.2463 3.73807 19.2774C3.76925 19.3123 3.79861 19.3472 3.82613 19.382C3.85548 19.4169 3.87383 19.4591 3.89584 19.4958C3.93437 19.5728 3.96005 19.6517 3.96923 19.7233C3.99308 19.8645 3.95822 19.9746 3.95822 19.9746L3.93437 19.9874C3.93437 19.9874 3.89401 19.9159 3.82796 19.815C3.76192 19.7122 3.66285 19.5838 3.54543 19.4719C3.32161 19.2353 3.02441 19.0922 3.02441 19.0922L3.03358 19.0683Z" fill="#DE5900"/>
<path d="M0.929541 20.4589C0.929541 20.4589 0.955225 20.4497 0.993752 20.4387C1.03228 20.4277 1.09465 20.4222 1.15887 20.4296C1.22491 20.4332 1.2983 20.4534 1.36984 20.4864C1.4047 20.5048 1.44323 20.5195 1.47442 20.547C1.50744 20.5708 1.53863 20.5983 1.56982 20.6259C1.59734 20.6571 1.62302 20.6882 1.6487 20.7213C1.67622 20.7525 1.68907 20.791 1.70925 20.824C1.74227 20.8937 1.76245 20.9653 1.76795 21.0313C1.78446 21.1616 1.74594 21.2606 1.74594 21.2606L1.72209 21.2735C1.72209 21.2735 1.68723 21.2111 1.62669 21.1212C1.56798 21.0313 1.47992 20.9176 1.37718 20.8203C1.17905 20.6112 0.918533 20.4846 0.918533 20.4846L0.929541 20.4589Z" fill="#DE5900"/>
<defs>
<linearGradient id="paint0_linear_742_2038" x1="16.332" y1="4.99604" x2="18.9121" y2="7.41275" gradientUnits="userSpaceOnUse">
<stop stop-color="#7CB342"/>
<stop offset="1" stop-color="#8BC34A"/>
</linearGradient>
<linearGradient id="paint1_linear_742_2038" x1="12.8849" y1="2.28941" x2="16.0086" y2="5.2153" gradientUnits="userSpaceOnUse">
<stop stop-color="#558B2F"/>
<stop offset="1" stop-color="#8BC34A"/>
</linearGradient>
<linearGradient id="paint2_linear_742_2038" x1="16.0539" y1="0.798133" x2="14.1251" y2="7.79221" gradientUnits="userSpaceOnUse">
<stop offset="0.0049261" stop-color="#558B2F"/>
<stop offset="1" stop-color="#8BC34A"/>
</linearGradient>
<linearGradient id="paint3_linear_742_2038" x1="5.06995" y1="11.6352" x2="9.54436" y2="16.4499" gradientUnits="userSpaceOnUse">
<stop offset="0.0049069" stop-color="#FFA24A"/>
<stop offset="0.6946" stop-color="#E45E00"/>
<stop offset="1" stop-color="#EB6700"/>
</linearGradient>
</defs>
</svg>
