la<svg width="26" height="22" viewBox="0 0 26 22" fill="none" xmlns="http://www.w3.org/2000/svg">
<path d="M10.3964 18.2438L12.5754 21.2921C12.5754 21.2921 22.6007 16.4616 23.9103 15.7613C25.2198 15.061 25.4019 14.7553 25.4648 14.391C25.5233 14.042 25.3759 7.7783 25.3759 7.20158C21.3302 9.39137 16.5647 9.62553 13.293 12.6631C11.9466 13.8707 10.8279 16.2578 10.3964 18.2438Z" fill="url(#paint0_linear_742_2094)"/>
<path d="M25.9765 4.7321C25.8746 2.47943 23.3899 1.56449 20.3741 0.710254C17.3582 -0.143982 14.6329 0.131368 13.7808 0.31349C12.9288 0.495611 10.6826 1.34985 10.1037 1.8355C9.52484 2.32116 1.45297 5.16572 1.45297 5.16572L1.29036 5.25678L10.3943 18.2438C10.8279 16.2599 11.9011 13.9466 13.2475 12.7346C16.5192 9.6949 21.2738 9.40654 25.3932 7.21675V7.16905C25.3932 7.16905 26.0523 6.40805 25.9765 4.7321Z" fill="url(#paint1_linear_742_2094)"/>
<path d="M0.310418 6.18256C0.0632536 6.65304 -0.0429837 7.22325 0.0177234 7.81732C0.108784 8.68239 0.733199 9.26995 1.05191 10.044C1.36846 10.8115 1.22536 11.5638 1.21018 12.3595C1.18417 13.6192 1.21235 14.8745 1.1885 16.1385C1.17333 16.9451 1.09311 18.4497 1.81292 18.9787C2.48503 19.4709 3.37829 19.7007 4.16965 19.9024C5.76972 20.31 7.36762 20.7284 8.98719 21.0515C9.72218 21.1989 10.4637 21.3355 11.2117 21.394C11.6041 21.4244 12.2307 21.5154 12.5863 21.2856C13.022 21.0038 13.1239 20.4639 13.1391 19.9847C13.163 19.2563 13.1673 18.5256 13.1825 17.795C13.1825 16.1017 13.2345 14.4019 13.3061 12.7107C13.3082 12.637 13.5901 12.3942 13.6378 12.3313C13.8806 12.0061 14.0692 11.67 14.1581 11.2755C14.3619 10.3865 14.4291 9.43256 14.1256 8.55664C13.6595 7.21241 12.4757 6.73109 11.1726 6.55764C10.2664 6.43623 9.38613 6.33867 8.47986 6.29747C7.40231 6.24977 6.35944 5.92672 5.33393 5.62536C4.36695 5.34133 3.37829 5.06598 2.36362 5.0443C1.44868 5.02696 0.757049 5.33266 0.310418 6.18256Z" fill="url(#paint2_linear_742_2094)"/>
<path opacity="0.6" d="M3.48243 9.99845C3.48243 9.69925 3.89003 9.14638 4.25644 9.44558C4.62502 9.74478 4.60117 10.1697 4.40604 10.2391C4.21091 10.3107 3.48243 10.6445 3.48243 9.99845Z" fill="#BA9D66"/>
<path opacity="0.6" d="M4.88082 11.1584C4.98923 11.412 5.27325 11.1584 5.27325 11.1584C5.27325 11.1584 5.57462 10.9329 5.27325 10.8267C4.97188 10.7226 4.81361 11.0023 4.88082 11.1584Z" fill="#BA9D66"/>
<path opacity="0.6" d="M1.97982 9.01413C2.06221 9.20709 2.27686 9.01413 2.27686 9.01413C2.27686 9.01413 2.50451 8.84285 2.27686 8.76263C2.0492 8.68241 1.92996 8.89488 1.97982 9.01413Z" fill="#BA9D66"/>
<path opacity="0.6" d="M4.59678 7.6894C4.52307 7.91921 4.85479 7.91271 4.85479 7.91271C4.85479 7.91271 5.18217 7.93656 5.04341 7.69373C4.90682 7.45307 4.64231 7.5463 4.59678 7.6894Z" fill="#BA9D66"/>
<path opacity="0.6" d="M9.42516 11.3102C9.35144 11.54 9.68316 11.5335 9.68316 11.5335C9.68316 11.5335 10.0105 11.5573 9.87179 11.3145C9.73303 11.0738 9.47069 11.1671 9.42516 11.3102Z" fill="#BA9D66"/>
<path opacity="0.6" d="M11.6345 14.8073C11.7168 15.0003 11.9315 14.8073 11.9315 14.8073C11.9315 14.8073 12.1591 14.636 11.9315 14.5558C11.7038 14.4756 11.5824 14.6859 11.6345 14.8073Z" fill="#BA9D66"/>
<path opacity="0.6" d="M5.60282 15.7483C5.69388 15.9607 5.93021 15.7483 5.93021 15.7483C5.93021 15.7483 6.18388 15.5596 5.93021 15.4707C5.67871 15.3819 5.54428 15.616 5.60282 15.7483Z" fill="#BA9D66"/>
<path opacity="0.6" d="M6.80606 18.2438C6.71717 18.4237 6.99035 18.4606 6.99035 18.4606C6.99035 18.4606 7.25703 18.5213 7.17464 18.3045C7.09009 18.0877 6.86027 18.131 6.80606 18.2438Z" fill="#BA9D66"/>
<path opacity="0.6" d="M9.65932 16.4486C9.86745 16.4291 9.75254 16.1667 9.75254 16.1667C9.75254 16.1667 9.66148 15.8979 9.51405 16.0887C9.36662 16.2816 9.5314 16.4594 9.65932 16.4486Z" fill="#BA9D66"/>
<path opacity="0.6" d="M2.92084 18.8704C3.08128 18.8552 2.99239 18.6535 2.99239 18.6535C2.99239 18.6535 2.92084 18.4454 2.8081 18.5928C2.69319 18.7403 2.82111 18.879 2.92084 18.8704Z" fill="#BA9D66"/>
<path opacity="0.6" d="M10.8019 16.2014C10.919 16.2773 10.9667 16.0908 10.9667 16.0908C10.9667 16.0908 11.0295 15.9109 10.8734 15.9521C10.7173 15.9933 10.7282 16.1537 10.8019 16.2014Z" fill="#BA9D66"/>
<path opacity="0.6" d="M5.93885 13.7319C6.07544 13.8945 6.22721 13.6452 6.22721 13.6452C6.22721 13.6452 6.39849 13.411 6.15349 13.4002C5.90633 13.3894 5.85213 13.63 5.93885 13.7319Z" fill="#BA9D66"/>
<path opacity="0.6" d="M10.4355 9.04663C10.5655 9.20273 10.7108 8.96424 10.7108 8.96424C10.7108 8.96424 10.8734 8.74093 10.6414 8.73225C10.4094 8.72358 10.3552 8.94907 10.4355 9.04663Z" fill="#BA9D66"/>
<path opacity="0.6" d="M11.1142 13.4479C11.2659 13.6278 11.4329 13.3525 11.4329 13.3525C11.4329 13.3525 11.6237 13.0945 11.3505 13.0837C11.0795 13.0706 11.0188 13.3352 11.1142 13.4479Z" fill="#BA9D66"/>
<path opacity="0.6" d="M5.97135 9.25913C6.10578 9.41957 6.25538 9.17241 6.25538 9.17241C6.25538 9.17241 6.42449 8.94259 6.18383 8.93175C5.94317 8.92308 5.88897 9.1594 5.97135 9.25913Z" fill="#BA9D66"/>
<path opacity="0.6" d="M9.56178 11.8305C9.65067 11.9367 9.7504 11.7741 9.7504 11.7741C9.7504 11.7741 9.86314 11.6202 9.7027 11.6137C9.54226 11.605 9.50757 11.7633 9.56178 11.8305Z" fill="#BA9D66"/>
<path opacity="0.6" d="M1.75871 10.4819C1.88446 10.6315 2.02322 10.4017 2.02322 10.4017C2.02322 10.4017 2.18149 10.1871 1.95601 10.1784C1.73053 10.1697 1.68066 10.3887 1.75871 10.4819Z" fill="#BA9D66"/>
<path opacity="0.6" d="M3.07905 12.8907C3.21998 13.0577 3.37609 12.8018 3.37609 12.8018C3.37609 12.8018 3.5517 12.5612 3.3002 12.5503C3.0487 12.5395 2.99233 12.7866 3.07905 12.8907Z" fill="#BA9D66"/>
<path opacity="0.6" d="M11.0078 10.6033C11.1314 10.7508 11.2659 10.5253 11.2659 10.5253C11.2659 10.5253 11.4198 10.315 11.1986 10.3063C10.9775 10.2976 10.932 10.5123 11.0078 10.6033Z" fill="#BA9D66"/>
<path opacity="0.6" d="M3.04656 15.2453C3.38261 15.3515 3.37177 14.8659 3.37177 14.8659C3.37177 14.8659 3.40429 14.3867 3.05089 14.5905C2.69749 14.7965 2.83625 15.1802 3.04656 15.2453Z" fill="#BA9D66"/>
<path opacity="0.6" d="M4.94152 16.4247C5.09329 16.8193 4.83745 17.7516 4.2022 17.5456C3.56694 17.3397 3.38048 16.7651 3.6038 16.5765C3.82278 16.3835 4.61414 15.5748 4.94152 16.4247Z" fill="#BA9D66"/>
<path opacity="0.6" d="M7.66465 13.7168C7.37195 13.9878 7.85327 14.2458 7.85327 14.2458C7.85327 14.2458 8.30424 14.545 8.30207 14.0853C8.29774 13.6279 7.8446 13.5476 7.66465 13.7168Z" fill="#BA9D66"/>
<path opacity="0.6" d="M10.8366 15.6464C10.3835 15.6637 10.6068 16.2469 10.6068 16.2469C10.6068 16.2469 10.7759 16.841 11.1141 16.4421C11.4545 16.041 11.1206 15.6355 10.8366 15.6464Z" fill="#BA9D66"/>
<path opacity="0.2" d="M16.0639 0.7729C17.0461 0.7729 18.5616 0.870465 20.2072 1.33661C23.481 2.26239 25.2697 3.08194 25.3477 4.76222C25.4106 6.12596 24.9054 6.7764 24.8903 6.79591C24.7775 6.91949 24.732 7.06475 24.7363 7.22953C24.7862 9.74237 24.8534 13.8553 24.8209 14.2954C24.8035 14.3865 24.7147 14.5924 23.6046 15.1843C22.4338 15.8109 14.0822 19.9021 12.5386 20.6588C12.4345 20.6588 12.3304 20.6848 12.2328 20.7369C12.2177 20.7455 12.1309 20.7846 11.8794 20.7846C11.7233 20.7846 11.5564 20.7694 11.4068 20.7564C11.3569 20.752 11.3114 20.7477 11.2659 20.7434C10.5916 20.6892 9.91947 20.5721 9.11727 20.4116C7.6538 20.1189 6.17515 19.7395 4.7442 19.3753L4.33226 19.269C3.59944 19.0826 2.76905 18.8701 2.19884 18.4517C1.7934 18.1546 1.82375 16.8538 1.83676 16.2987L1.83893 16.1491C1.85194 15.5204 1.84977 14.8873 1.84977 14.2759C1.84977 13.6515 1.8476 13.0054 1.86061 12.3723C1.86495 12.2097 1.87362 12.0471 1.88229 11.878C1.91915 11.2167 1.95818 10.5316 1.65464 9.7944C1.51588 9.45835 1.3381 9.16999 1.16682 8.8903C0.919652 8.49137 0.707177 8.14447 0.665983 7.74988C0.618284 7.29457 0.696336 6.84361 0.88713 6.48587C1.05624 6.16499 1.26221 5.95902 1.53756 5.8376C4.05691 4.94868 9.92381 2.84561 10.5265 2.33827C10.9688 1.96753 13.0719 1.13714 13.924 0.952853C14.3207 0.866129 15.0948 0.7729 16.0639 0.7729ZM16.0639 0.122467C15.0015 0.122467 14.1863 0.228705 13.7852 0.313261C12.9331 0.495382 10.6848 1.34962 10.1059 1.83527C9.52705 2.32527 1.2969 5.23053 1.2969 5.23053C0.893634 5.40181 0.561913 5.70318 0.308245 6.18233C0.0610802 6.65281 -0.0451573 7.22303 0.0177179 7.81709C0.108779 8.68216 0.733194 9.26972 1.05191 10.0437C1.36845 10.8112 1.22536 11.5636 1.21018 12.3593C1.18416 13.619 1.21235 14.8743 1.1885 16.1383C1.17332 16.9448 1.0931 18.4495 1.81291 18.9785C2.48503 19.4707 3.37829 19.7005 4.16965 19.9021C5.76971 20.3097 7.36761 20.7282 8.98719 21.0512C9.72218 21.1987 10.4637 21.3353 11.2117 21.3938C11.3981 21.409 11.6388 21.4372 11.8751 21.4372C12.1158 21.4372 12.3564 21.409 12.5386 21.3092L12.5754 21.3634C12.5754 21.3634 22.5964 16.4592 23.9081 15.7589C25.2177 15.0586 25.3998 14.7529 25.4627 14.3886C25.5212 14.0417 25.3824 7.21652 25.3824 7.21652C25.3824 7.21652 26.0719 6.40782 25.9938 4.73187C25.8919 2.4792 23.3964 1.56426 20.3806 0.710025C18.7849 0.259058 17.265 0.122467 16.0639 0.122467Z" fill="#424242"/>
<defs>
<linearGradient id="paint0_linear_742_2094" x1="17.9365" y1="9.57892" x2="17.9365" y2="18.3999" gradientUnits="userSpaceOnUse">
<stop stop-color="#EF9D50"/>
<stop offset="1" stop-color="#CF8745"/>
</linearGradient>
<linearGradient id="paint1_linear_742_2094" x1="13.6369" y1="-1.01339" x2="13.6369" y2="11.3453" gradientUnits="userSpaceOnUse">
<stop offset="0.133" stop-color="#EF8650"/>
<stop offset="0.7734" stop-color="#A85529"/>
<stop offset="1" stop-color="#C66029"/>
</linearGradient>
<linearGradient id="paint2_linear_742_2094" x1="1.91742" y1="6.38333" x2="15.3205" y2="22.4672" gradientUnits="userSpaceOnUse">
<stop stop-color="#FBDDA3"/>
<stop offset="1" stop-color="#E0C692"/>
</linearGradient>
</defs>
</svg>
