<svg width="28" height="19" viewBox="0 0 28 19" fill="none" xmlns="http://www.w3.org/2000/svg">
<path d="M26.1334 11.48C26.1334 15.4467 20.6734 18.6667 14.0001 18.6667C7.28005 18.6667 1.86671 15.4467 1.86671 11.48C1.86671 7.51332 7.28005 4.29332 14.0001 4.29332C20.6734 4.29332 26.1334 7.51332 26.1334 11.48Z" fill="#94989B"/>
<path d="M28 8.82001C28 13.6733 21.7467 17.64 14 17.64C6.25334 17.64 0 13.72 0 8.82001C0 3.92 6.25334 0 14 0C21.7467 0 28 3.92 28 8.82001Z" fill="#C7D7D7"/>
<path d="M25.5267 8.02667C25.5267 4.80667 20.3467 2.14667 14 2.14667C7.65333 2.14667 2.47333 4.76 2.47333 8.02667C2.47333 9.84667 4.10666 11.48 6.72 12.5533C6.86 12.6933 7 13.02 6.76666 13.58C6.39333 14.5133 7.74666 15.7267 8.96 15.0267C10.1733 14.3267 11.9467 14.56 12.6 15.0267C13.2533 15.4933 15.12 15.68 16.1 15.0267C17.08 14.3733 17.8267 13.9067 19.46 13.9067C21.0933 13.9067 22.3533 12.2267 23.1933 11.5733C24.6867 10.5933 25.5267 9.38001 25.5267 8.02667Z" fill="#BA5327"/>
<path d="M23.5201 7.46668C22.8201 6.30001 21.2801 7.93334 20.3934 7.70001C18.4334 7.18668 19.8801 10.0333 20.6734 10.1733C21.6068 10.36 24.2201 8.63334 23.5201 7.46668ZM16.5668 10.1733C15.1668 10.1267 14.9801 9.70668 14.2801 10.36C12.7867 11.76 17.4068 13.3467 17.9668 12.7867C18.6201 12.0867 17.9668 10.22 16.5668 10.1733ZM19.1334 3.96667C17.5001 3.92001 17.4068 3.64001 16.6134 4.43334C14.8401 6.11334 17.1734 7.93334 17.8268 7.23334C18.5734 6.39334 20.7201 4.01334 19.1334 3.96667ZM11.3401 9.38001C10.0334 9.24001 8.30675 10.08 8.16675 11.2467C8.02675 12.3667 8.82008 13.2067 9.75341 12.9267C10.6867 12.6467 11.2001 11.2467 11.6667 10.78C12.1334 10.3133 12.0867 9.47334 11.3401 9.38001Z" fill="#FBBF67"/>
<path d="M13.5334 0.840022C12.9267 0.746689 12.5067 1.91336 11.9 1.82002C11.48 1.77336 10.5467 0.886689 10.1734 0.980023C9.70671 1.07336 9.10004 2.42669 8.63338 2.56669C7.98004 2.70669 7.70004 1.40002 7.04671 1.58669C5.50671 2.00669 4.66671 4.57336 2.94004 4.57336C1.63337 4.62002 0.280039 9.24003 1.68004 9.24003C4.20004 9.24003 3.96671 10.78 4.29337 10.78C4.66671 10.8267 4.66671 9.56669 4.94671 9.38003C5.32004 9.10003 6.39338 9.61336 6.72004 9.28669C7.00004 9.05336 6.72004 8.02669 7.00004 7.79336C7.32671 7.51336 8.35338 8.12003 8.77338 7.93336C9.00671 7.84003 9.10004 6.76669 9.28671 6.95336C10.6867 8.44669 11.62 7.84003 11.9 7.18669C12.0867 6.72003 11.2467 5.55336 11.62 5.18003C11.9934 4.80669 12.88 6.44003 13.3467 6.20669C13.5334 6.11336 13.3934 5.50669 13.5334 5.41336C13.8134 5.18003 14.7 5.88003 14.9334 5.55336C15.0734 5.32002 14.3734 4.66669 14.5134 4.43336C14.7 4.15336 15.54 4.71336 15.82 4.52669C16.2867 4.29336 16.7534 2.80002 16.66 2.28669C16.4267 1.49336 14.1867 0.933356 13.5334 0.840022Z" fill="#FFFBE9"/>
<path d="M5.9267 2.93999C5.3667 3.73333 5.18003 4.57333 5.46003 4.80666C5.74003 5.03999 6.39337 4.62 6.95337 3.82666C7.51337 3.03333 7.70003 2.19333 7.42003 1.95999C7.14003 1.72666 6.4867 2.14666 5.9267 2.93999ZM7.7467 7.14C6.95337 6.72 6.16003 6.62666 6.02003 7C5.88003 7.32666 6.39337 7.98 7.1867 8.4C7.98003 8.82 8.77337 8.91333 8.91337 8.54C9.05337 8.16666 8.54004 7.56 7.7467 7.14ZM3.4067 6.06666C2.7067 6.62666 2.33336 7.37333 2.5667 7.65333C2.66003 7.79333 3.22003 7.28 3.08003 8.58666C2.9867 9.42666 4.06003 8.58666 4.71337 7.98C6.2067 6.48666 5.04003 4.75999 3.4067 6.06666ZM10.92 5.55333C11.2934 5.50666 10.7334 4.47999 10.08 3.87333C9.38004 3.26666 8.49337 2.98666 8.4467 3.35999C8.35337 4.24666 7.8867 3.96666 7.79337 4.15333C7.6067 4.47999 8.0267 5.22666 8.77337 5.74C9.47337 6.25333 10.22 6.44 10.4067 6.11333C10.4534 5.97333 10.08 5.6 10.92 5.55333ZM14.7 3.12666C15.4 2.56666 15.7734 1.81999 15.54 1.53999C15.3067 1.21333 13.72 2.37999 12.2267 1.95999C11.3867 1.72666 10.5934 2.23999 10.5934 2.61333C10.5934 2.89333 10.92 3.12666 11.4334 3.26666C11.2 3.68666 11.1067 4.05999 11.2934 4.24666C11.5267 4.52666 12.2734 4.24666 12.9267 3.63999C12.9267 3.49999 14 3.68666 14.7 3.12666Z" fill="#E8E1D6"/>
<path d="M6.90666 5.78667C6.62666 4.90001 5.78666 4.29334 5.78666 4.29334C5.78666 4.29334 5.87999 5.22667 5.97332 5.64667C5.03999 5.27334 5.03999 3.45334 5.03999 3.45334C5.03999 3.45334 4.43332 3.87334 4.47999 4.57334C3.45332 3.68667 2.61332 4.10667 2.61332 4.10667C2.61332 4.10667 3.87332 4.90001 4.05999 5.46001C3.35999 5.50667 2.93999 5.78667 2.65999 6.44001C2.65999 6.44001 4.05999 5.69334 5.13332 6.25334C4.71332 6.62667 4.94666 7.56001 4.94666 7.56001C6.62666 5.60001 7.69999 7.37334 8.44666 6.86001C7.88666 5.92667 6.90666 5.78667 6.90666 5.78667ZM16.6133 1.07334C16.6133 1.07334 15.6333 1.77334 15.2133 1.68001C15.4467 1.07334 15.4467 0.653338 15.12 0.233337C15.12 0.233337 15.0267 1.63334 14.28 2.24001C14.1867 1.77334 13.5333 1.58667 13.5333 1.58667C14.14 3.68667 12.6 3.82667 12.6 4.57334C13.44 4.48001 13.86 3.78001 13.86 3.78001C14.5133 3.92001 15.2133 3.50001 15.2133 3.50001C15.2133 3.50001 14.6067 3.22001 14.28 3.12667C14.84 2.56667 16.0067 3.22001 16.0067 3.22001C16.0067 3.22001 16.0067 2.56667 15.54 2.33334C16.5667 1.86667 16.6133 1.07334 16.6133 1.07334Z" fill="#85D82C"/>
</svg>
