<svg width="21" height="23" viewBox="0 0 21 23" fill="none" xmlns="http://www.w3.org/2000/svg">
<path d="M16.5589 0H3.80194C3.12914 0 2.58374 0.5454 2.58374 1.2182V19.741C2.58374 20.4138 3.12914 20.9592 3.80194 20.9592H16.5591C17.2319 20.9592 17.7773 20.4138 17.7773 19.741V1.2182C17.7771 0.5454 17.2317 0 16.5589 0Z" fill="#E74B44"/>
<path d="M8.01245 15.0358C8.01245 12.5758 5.88745 10.3816 5.50745 9.31559V8.57799H5.50785V8.3818H5.52705C5.93165 8.3818 6.26245 8.05079 6.26245 7.64639C6.26245 7.2418 5.93145 6.911 5.52705 6.911H3.27485C2.95545 6.911 2.68485 7.1184 2.58385 7.4044V7.8886C2.68485 8.1744 2.95545 8.382 3.27485 8.382H3.29465V8.57819H3.29425V9.31579C3.22305 9.51559 3.09045 9.7552 2.92185 10.0288C2.86565 10.12 2.80565 10.215 2.74245 10.3134C2.69165 10.3926 2.63785 10.4756 2.58365 10.5592V19.4984C2.58365 20.3054 3.23785 20.9596 4.04485 20.9596H7.95245C7.98885 20.7904 8.01245 20.6166 8.01245 20.4368H8.01285V15.0358H8.01245Z" fill="#BC4749"/>
<path d="M12.3779 6.4424C12.0273 6.4424 11.7433 6.7266 11.7433 7.077V20.9592H16.3159C17.1229 20.9592 17.7771 20.305 17.7771 19.498V6.4424H12.3779Z" fill="#BC4749"/>
<path d="M7.49097 11.0344C7.27857 11.0344 7.10477 11.2082 7.10477 11.4206C7.10477 11.633 7.27857 11.8068 7.49097 11.8068H11.7434V11.0344H7.49097Z" fill="#A9D8C2"/>
<path d="M7.51279 12.8458C7.62019 13.0966 7.71399 13.355 7.79199 13.6182H11.7434V12.8458H7.51279Z" fill="#A9D8C2"/>
<path d="M8.01283 18.798H11.7434V19.1238H8.01283V18.798Z" fill="#A9D8C2"/>
<path d="M8.01283 19.4938H11.7434V19.8196H8.01283V19.4938Z" fill="#A9D8C2"/>
<path d="M7.51277 12.8458H7.49097C7.27857 12.8458 7.10477 13.0196 7.10477 13.232C7.10477 13.4444 7.27857 13.6182 7.49097 13.6182H7.79217C7.71417 13.3548 7.62017 13.0966 7.51277 12.8458Z" fill="#62949E"/>
<path d="M7.26757 18.798C7.17797 18.798 7.10477 18.8712 7.10477 18.9608C7.10477 19.0504 7.17797 19.1236 7.26757 19.1236H8.01277V18.7978L7.26757 18.798Z" fill="#62949E"/>
<path d="M7.26757 19.4938C7.17797 19.4938 7.10477 19.567 7.10477 19.6566C7.10477 19.7462 7.17797 19.8194 7.26757 19.8194H8.01277V19.4936L7.26757 19.4938Z" fill="#62949E"/>
<path d="M13.1701 11.0344H11.7433V11.8068H13.1703C13.3827 11.8068 13.5565 11.633 13.5565 11.4206C13.5563 11.2082 13.3825 11.0344 13.1701 11.0344Z" fill="#62949E"/>
<path d="M13.1701 12.8458H11.7433V13.6182H13.1703C13.3827 13.6182 13.5565 13.4444 13.5565 13.232C13.5563 13.0196 13.3825 12.8458 13.1701 12.8458Z" fill="#62949E"/>
<path d="M13.3935 18.798H11.7433V19.1238H13.3935C13.4831 19.1238 13.5563 19.0506 13.5563 18.961C13.5563 18.8712 13.4831 18.798 13.3935 18.798Z" fill="#62949E"/>
<path d="M13.3935 19.4938H11.7433V19.8196H13.3935C13.4831 19.8196 13.5563 19.7464 13.5563 19.6568C13.5563 19.5672 13.4831 19.4938 13.3935 19.4938Z" fill="#62949E"/>
<path d="M10.3305 9.075C12.8865 9.075 14.9585 7.64455 14.9585 5.88C14.9585 4.11545 12.8865 2.685 10.3305 2.685C7.77454 2.685 5.70251 4.11545 5.70251 5.88C5.70251 7.64455 7.77454 9.075 10.3305 9.075Z" fill="#FFE8AF"/>
<path d="M12.3779 6.4424C12.0273 6.4424 11.7433 6.7266 11.7433 7.077V8.922C13.3563 8.5652 14.5805 7.6144 14.8827 6.4422L12.3779 6.4424Z" fill="#AB9758"/>
<path d="M0.00038147 15.0358C0.00038147 14.7284 0.0335815 14.425 0.0923815 14.1274C0.0335815 14.4248 0.00038147 14.7282 0.00038147 15.0358Z" fill="#62949E"/>
<path d="M2.25243 9.8296C2.36423 9.6374 2.45203 9.4652 2.50543 9.3154C2.45203 9.4654 2.36403 9.6376 2.25243 9.8296Z" fill="#62949E"/>
<path d="M4.71818 9.3154V8.5778H2.50498V9.3154C2.43378 9.5152 2.30118 9.7548 2.13258 10.0284C2.07638 10.1196 2.01638 10.2146 1.95318 10.313C1.82678 10.51 1.68838 10.7214 1.54538 10.9452C1.40238 11.169 1.25458 11.4054 1.10998 11.6528C1.03758 11.7764 0.965983 11.9028 0.896183 12.0318C0.546583 12.6762 0.239183 13.3836 0.0921831 14.1274C0.0333831 14.425 0.000183105 14.7282 0.000183105 15.0358H7.22338C7.22318 12.5756 5.09838 10.3814 4.71818 9.3154Z" fill="#A9D8C2"/>
<path d="M7.2232 20.4364H0C0 20.7008 0.0406 20.9562 0.1158 21.1966C0.191 21.437 0.3008 21.6626 0.4394 21.8672C0.5318 22.0036 0.637 22.1308 0.7532 22.247C0.9274 22.4212 1.1264 22.5706 1.3444 22.6894C1.7076 22.8874 2.1232 23 2.5638 23H4.66C4.7702 23 4.878 22.9906 4.9846 22.977C5.014 22.9732 5.043 22.9682 5.0722 22.9636C5.157 22.9496 5.2404 22.9318 5.3222 22.9096C5.3438 22.9038 5.366 22.8992 5.3874 22.8928C5.4888 22.8626 5.5876 22.8264 5.6832 22.7842C5.699 22.7772 5.714 22.769 5.7298 22.7618C5.812 22.7236 5.8918 22.6812 5.9692 22.6348C5.9884 22.6234 6.0074 22.612 6.0262 22.6C6.207 22.4852 6.3722 22.3488 6.5188 22.194C6.5288 22.1834 6.5384 22.1724 6.5482 22.1616C6.6162 22.0872 6.6802 22.0094 6.7392 21.9274C6.7436 21.9214 6.7484 21.9156 6.7526 21.9094C6.8174 21.8176 6.8768 21.7216 6.9296 21.6214C6.928 21.6224 6.926 21.623 6.9244 21.624C7.1128 21.268 7.2232 20.8654 7.2232 20.4364Z" fill="#A9D8C2"/>
<path d="M0.00038147 15.0358H7.22358V15.8156H0.00038147V15.0358Z" fill="#E74B44"/>
<path d="M0.00038147 19.6566H7.22358V20.4364H0.00038147V19.6566Z" fill="#E74B44"/>
<path d="M0.00038147 15.8154H7.22358V19.6566H0.00038147V15.8154Z" fill="#FFE8AF"/>
<path d="M2.50533 8.18561H4.71852V8.79481H2.50533V8.18561Z" fill="#62949E"/>
<path d="M4.7378 6.9108H2.4856C2.0812 6.9108 1.7502 7.2418 1.7502 7.6462C1.7502 8.0508 2.0812 8.3816 2.4856 8.3816H4.7378C5.1424 8.3816 5.4732 8.0506 5.4732 7.6462C5.4732 7.2418 5.1424 6.9108 4.7378 6.9108Z" fill="#A9D8C2"/>
<path d="M0.00038147 15.0358C0.00038147 14.7284 0.0335815 14.425 0.0923815 14.1274C0.0335815 14.4248 0.00038147 14.7282 0.00038147 15.0358Z" fill="#62949E"/>
<path d="M2.25243 9.8296C2.36423 9.6374 2.45203 9.4652 2.50543 9.3154C2.45203 9.4654 2.36403 9.6376 2.25243 9.8296Z" fill="#62949E"/>
<path d="M4.71818 9.3154V8.5778H2.50498V9.3154C2.43378 9.5152 2.30118 9.7548 2.13258 10.0284C2.07638 10.1196 2.01638 10.2146 1.95318 10.313C1.82678 10.51 1.68838 10.7214 1.54538 10.9452C1.40238 11.169 1.25458 11.4054 1.10998 11.6528C1.03758 11.7764 0.965983 11.9028 0.896183 12.0318C0.546583 12.6762 0.239183 13.3836 0.0921831 14.1274C0.0333831 14.425 0.000183105 14.7282 0.000183105 15.0358H7.22338C7.22318 12.5756 5.09838 10.3814 4.71818 9.3154Z" fill="#A9D8C2"/>
<path d="M7.2232 20.4364H0C0 20.7008 0.0406 20.9562 0.1158 21.1966C0.191 21.437 0.3008 21.6626 0.4394 21.8672C0.5318 22.0036 0.637 22.1308 0.7532 22.247C0.9274 22.4212 1.1264 22.5706 1.3444 22.6894C1.7076 22.8874 2.1232 23 2.5638 23H4.66C4.7702 23 4.878 22.9906 4.9846 22.977C5.014 22.9732 5.043 22.9682 5.0722 22.9636C5.157 22.9496 5.2404 22.9318 5.3222 22.9096C5.3438 22.9038 5.366 22.8992 5.3874 22.8928C5.4888 22.8626 5.5876 22.8264 5.6832 22.7842C5.699 22.7772 5.714 22.769 5.7298 22.7618C5.812 22.7236 5.8918 22.6812 5.9692 22.6348C5.9884 22.6234 6.0074 22.612 6.0262 22.6C6.207 22.4852 6.3722 22.3488 6.5188 22.194C6.5288 22.1834 6.5384 22.1724 6.5482 22.1616C6.6162 22.0872 6.6802 22.0094 6.7392 21.9274C6.7436 21.9214 6.7484 21.9156 6.7526 21.9094C6.8174 21.8176 6.8768 21.7216 6.9296 21.6214C6.928 21.6224 6.926 21.623 6.9244 21.624C7.1128 21.268 7.2232 20.8654 7.2232 20.4364Z" fill="#A9D8C2"/>
<path d="M0.00038147 15.0358H7.22358V15.8156H0.00038147V15.0358Z" fill="#E74B44"/>
<path d="M0.00038147 19.6566H7.22358V20.4364H0.00038147V19.6566Z" fill="#E74B44"/>
<path d="M0.00038147 15.8154H7.22358V19.6566H0.00038147V15.8154Z" fill="#FFE8AF"/>
<path d="M2.50533 8.18561H4.71852V8.79481H2.50533V8.18561Z" fill="#62949E"/>
<path d="M4.7378 6.9108H2.4856C2.0812 6.9108 1.7502 7.2418 1.7502 7.6462C1.7502 8.0508 2.0812 8.3816 2.4856 8.3816H4.7378C5.1424 8.3816 5.4732 8.0506 5.4732 7.6462C5.4732 7.2418 5.1424 6.9108 4.7378 6.9108Z" fill="#A9D8C2"/>
<path d="M0.00038147 15.0358H0.568781V15.8156H0.00038147V15.0358Z" fill="#BC4749"/>
<path d="M0.00038147 19.6566H0.568781V20.4364H0.00038147V19.6566Z" fill="#BC4749"/>
<path d="M0.00038147 15.8154H0.568781V19.6566H0.00038147V15.8154Z" fill="#AB9758"/>
<path d="M2.50533 8.38179H3.07373V8.57799H2.50533V8.38179Z" fill="#62949E"/>
<path d="M2.50533 8.57799H3.07353V8.79499H2.50533V8.57799Z" fill="#62949E"/>
<path d="M2.50538 8.79499V8.57799H2.50498V9.31559C2.43378 9.51539 2.30118 9.75499 2.13258 10.0286C2.07638 10.1198 2.01638 10.2148 1.95318 10.3132C1.82678 10.5102 1.68838 10.7216 1.54538 10.9454C1.40238 11.1692 1.25458 11.4056 1.10998 11.653C1.03758 11.7766 0.965983 11.903 0.896183 12.032C0.546583 12.6764 0.239183 13.3838 0.0921831 14.1276C0.0333831 14.4252 0.000183105 14.7284 0.000183105 15.036H0.568583C0.568583 14.7286 0.601783 14.4252 0.660583 14.1276C0.807783 13.3838 1.11518 12.6766 1.46458 12.032C1.53438 11.903 1.60618 11.7768 1.67838 11.653C1.82298 11.4056 1.97078 11.1692 2.11378 10.9454C2.25678 10.7216 2.39538 10.5102 2.52158 10.3132C2.58478 10.2146 2.64478 10.1198 2.70098 10.0286C2.86938 9.75499 3.00198 9.51559 3.07338 9.31559V8.79519L2.50538 8.79499Z" fill="#62949E"/>
<path d="M1.9128 22.6894C1.695 22.5706 1.4958 22.4212 1.3216 22.247C1.2054 22.1308 1.1002 22.0036 1.008 21.8672C0.8694 21.6626 0.7596 21.437 0.6844 21.1966C0.6092 20.9562 0.5686 20.7008 0.5686 20.4364H0C0 20.7008 0.0406 20.9562 0.1158 21.1966C0.191 21.437 0.3008 21.6626 0.4394 21.8672C0.5318 22.0036 0.637 22.1308 0.7532 22.247C0.9274 22.4212 1.1264 22.5706 1.3444 22.6894C1.7076 22.8874 2.1232 23 2.5638 23H3.1322C2.6914 23 2.2758 22.8872 1.9128 22.6894Z" fill="#62949E"/>
<path d="M2.59301 8.1856C2.57961 8.1856 2.56702 8.1824 2.55382 8.1816C2.41002 8.0472 2.31842 7.8574 2.31842 7.6462C2.31842 7.2416 2.64942 6.9108 3.05382 6.9108H2.48541C2.08082 6.9108 1.75002 7.2418 1.75002 7.6462C1.75002 8.0506 2.08101 8.3816 2.48541 8.3816H3.05382C2.86282 8.3816 2.68962 8.306 2.55862 8.1854H2.59301V8.1856Z" fill="#62949E"/>
<path d="M3.07356 8.57799H3.07396V8.79499H3.07356V8.57799Z" fill="#62949E"/>
<path d="M0.568893 15.0358C0.568893 14.7284 0.602093 14.425 0.660893 14.1274C0.602293 14.4248 0.568893 14.7282 0.568893 15.0358Z" fill="#62949E"/>
<path d="M3.00945 9.4726C3.03445 9.4178 3.05625 9.3654 3.07405 9.3154C3.05605 9.3654 3.03445 9.4178 3.00945 9.4726Z" fill="#62949E"/>
<path d="M12.6551 11.3422V22.2248C12.6551 22.653 13.0021 23 13.4303 23H20.1437C20.5719 23 20.9189 22.653 20.9189 22.2248V11.3422H12.6551Z" fill="#62949E"/>
<path d="M20.2841 6.19218H13.2897C12.9391 6.19218 12.6551 6.47638 12.6551 6.82678V7.91258H20.9189V6.82678C20.9189 6.47638 20.6347 6.19218 20.2841 6.19218Z" fill="#62949E"/>
<path d="M12.6551 7.6546H20.9189V11.3512H12.6551V7.6546Z" fill="#A9D8C2"/>
<path d="M16.8833 10.3762C17.3656 10.3762 17.7565 9.98525 17.7565 9.50299C17.7565 9.02074 17.3656 8.62979 16.8833 8.62979C16.4011 8.62979 16.0101 9.02074 16.0101 9.50299C16.0101 9.98525 16.4011 10.3762 16.8833 10.3762Z" fill="#AB9758"/>
<path d="M16.8833 9.9754C17.3656 9.9754 17.7565 9.58446 17.7565 9.1022C17.7565 8.61995 17.3656 8.229 16.8833 8.229C16.4011 8.229 16.0101 8.61995 16.0101 9.1022C16.0101 9.58446 16.4011 9.9754 16.8833 9.9754Z" fill="#FFE8AF"/>
<path d="M20.2846 20.0852C19.8438 20.1858 19.4766 19.6586 19.5252 19.209C19.5738 18.7594 19.8748 18.3854 20.1116 18.0002C20.7394 16.9794 21.0814 14.8596 20.587 14.6206C20.2986 14.5218 20.0712 14.5714 19.9524 14.8102C19.8336 15.0488 19.9444 15.434 19.9546 15.7004C19.9616 15.885 19.9738 16.078 19.8972 16.2462C19.8206 16.4142 19.6206 16.5428 19.4502 16.4718C19.2194 16.3756 19.2362 16.049 19.2768 15.8022C19.3566 15.3182 19.3738 14.824 19.3282 14.3356C19.2942 13.9722 19.2172 13.594 18.9818 13.315C18.7464 13.036 18.311 12.8976 18.004 13.095C17.672 13.3084 17.638 13.7814 17.7096 14.1696C17.8076 14.7012 18.0328 15.1996 18.2002 15.7136C18.3676 16.2276 18.4772 16.7844 18.3374 17.3066C18.1974 17.8288 17.7482 18.2988 17.2078 18.3116C17.0624 18.315 16.8976 18.273 16.8284 18.145C16.7822 18.0598 16.7896 17.9566 16.8012 17.8602C16.8602 17.3676 16.9962 16.8838 17.011 16.388C17.0258 15.8922 16.8964 15.3586 16.5196 15.036C16.1428 14.7134 15.4802 14.7134 15.2072 15.1274C14.9812 15.4702 15.0906 15.932 15.2662 16.3032C15.4416 16.6746 15.6804 17.0364 15.6976 17.4468C15.7294 18.2064 14.968 18.7942 14.2164 18.909C13.921 18.9542 13.6188 18.949 13.3268 19.0118C13.0838 19.064 12.8572 19.1694 12.6558 19.312V22.2246C12.6558 22.6528 13.0028 22.9998 13.431 22.9998H20.1444C20.5726 22.9998 20.9196 22.6528 20.9196 22.2246V19.5624C20.733 19.781 20.5448 20.0258 20.2846 20.0852Z" fill="#FFE8AF"/>
</svg>
