<svg width="26" height="21" viewBox="0 0 26 21" fill="none" xmlns="http://www.w3.org/2000/svg">
<path fill-rule="evenodd" clip-rule="evenodd" d="M20.3782 0.081126L11.9109 2.3499L23.4329 2.349L23.2731 1.75247C22.9352 0.491524 21.6391 -0.256733 20.3782 0.081126ZM2.23799 3.02532C1.00198 3.02532 0 4.02733 0 5.26332V18.6623C0 19.8983 1.00199 20.9003 2.238 20.9003H5.35021C5.61311 20.9003 5.86763 20.8077 6.06911 20.6388L7.29849 19.6082L8.54097 20.6416C8.74194 20.8088 8.99511 20.9003 9.25651 20.9003H23.762C24.998 20.9003 26 19.8983 26 18.6623V5.26332C26 4.02733 24.998 3.02532 23.762 3.02532H9.1882C8.90996 3.02532 8.64168 3.129 8.43573 3.31609L7.29139 4.3557L6.09255 3.30339C5.88839 3.12413 5.62604 3.02532 5.35435 3.02532H2.23799Z" fill="url(#paint0_linear_742_1980)"/>
<path d="M7.6609 6.21291H6.8776C6.6922 6.21291 6.5419 6.3632 6.5419 6.5486V7.3319C6.5419 7.5173 6.6922 7.6676 6.8776 7.6676H7.6609C7.8463 7.6676 7.9966 7.5173 7.9966 7.3319V6.5486C7.9966 6.3632 7.8463 6.21291 7.6609 6.21291Z" fill="#BDD6A8"/>
<path d="M7.66093 9.45799H6.87763C6.69223 9.45799 6.54193 9.60829 6.54193 9.79369V10.577C6.54193 10.7624 6.69223 10.9127 6.87763 10.9127H7.66093C7.84633 10.9127 7.99663 10.7624 7.99663 10.577V9.79369C7.99663 9.60829 7.84633 9.45799 7.66093 9.45799Z" fill="#BDD6A8"/>
<path d="M7.66093 12.7031H6.87763C6.69223 12.7031 6.54193 12.8534 6.54193 13.0388V13.8221C6.54193 14.0075 6.69223 14.1578 6.87763 14.1578H7.66093C7.84633 14.1578 7.99663 14.0075 7.99663 13.8221V13.0388C7.99663 12.8534 7.84633 12.7031 7.66093 12.7031Z" fill="#BDD6A8"/>
<path d="M7.66093 15.9482H6.87763C6.69223 15.9482 6.54193 16.0985 6.54193 16.2839V17.0672C6.54193 17.2526 6.69223 17.4029 6.87763 17.4029H7.66093C7.84633 17.4029 7.99663 17.2526 7.99663 17.0672V16.2839C7.99663 16.0985 7.84633 15.9482 7.66093 15.9482Z" fill="#BDD6A8"/>
<path d="M14.4773 10.8503C15.2931 10.8503 15.9545 10.1889 15.9545 9.37305C15.9545 8.55718 15.2931 7.89578 14.4773 7.89578C13.6614 7.89578 13 8.55718 13 9.37305C13 10.1889 13.6614 10.8503 14.4773 10.8503Z" stroke="white" stroke-width="1.38419" stroke-linecap="round"/>
<path d="M19.8175 16.1231C20.6334 16.1231 21.2948 15.4617 21.2948 14.6458C21.2948 13.8299 20.6334 13.1685 19.8175 13.1685C19.0017 13.1685 18.3403 13.8299 18.3403 14.6458C18.3403 15.4617 19.0017 16.1231 19.8175 16.1231Z" stroke="white" stroke-width="1.38419" stroke-linecap="round"/>
<path d="M20.4125 7.89575L13.6713 16.1231" stroke="white" stroke-width="1.38419" stroke-linecap="round"/>
<defs>
<linearGradient id="paint0_linear_742_1980" x1="9.1304" y1="-14.284" x2="-6.21246" y2="18.47" gradientUnits="userSpaceOnUse">
<stop stop-color="#A7C957"/>
<stop offset="1" stop-color="#386641"/>
</linearGradient>
</defs>
</svg>
